<svg width="254" height="54" viewBox="0 0 254 54" fill="none" xmlns="http://www.w3.org/2000/svg">
<path d="M86.1003 18.018C86.203 17.9975 86.3366 17.9872 86.5009 17.9872C87.1171 17.9872 87.5998 18.1721 87.949 18.5418C88.2982 18.891 88.4728 19.3737 88.4728 19.99C88.4728 21.0581 87.9182 21.7051 86.809 21.9311C85.8847 22.116 84.1592 22.2084 81.6326 22.2084H80.6467C79.5169 22.2084 78.4385 22.1776 77.4114 22.116C76.4049 22.0543 75.1622 21.9311 73.6832 21.7462C72.7794 21.623 72.3275 21.0067 72.3275 19.8975C72.3275 19.3634 72.4302 18.9218 72.6356 18.5726C72.841 18.2029 73.1594 17.9975 73.5908 17.9564H73.8989C74.1454 16.2926 74.2481 14.6903 74.207 13.1498H73.9913C73.4984 13.1498 73.1286 12.9854 72.8821 12.6568C72.6562 12.3076 72.5432 11.794 72.5432 11.1162C72.5432 10.541 72.6562 10.0686 72.8821 9.69886C73.1286 9.32912 73.4881 9.14424 73.9605 9.14424H74.207C74.2276 8.38422 74.2378 6.93608 74.2378 4.7998C73.5394 4.51223 73.1902 3.9268 73.1902 3.04354C73.1902 2.38622 73.3648 1.91377 73.714 1.6262C74.0632 1.31808 74.6076 1.12294 75.3471 1.04078C76.3536 0.938071 78.1817 0.886719 80.8315 0.886719C83.3992 0.886719 85.3609 0.968883 86.7166 1.13321C87.3328 1.19484 87.8052 1.37971 88.1339 1.68782C88.4831 1.9754 88.6577 2.4273 88.6577 3.04354C88.6577 3.65977 88.5036 4.16303 88.1955 4.55331C87.8874 4.92305 87.4663 5.08738 86.9322 5.04629C85.0425 4.88197 83.3786 4.7998 81.9408 4.7998C81.2834 4.7998 80.4413 4.82034 79.4142 4.86142L78.6131 4.89223L78.7055 9.20587H79.4142C80.4413 9.20587 81.6943 9.22641 83.1732 9.26749L85.1452 9.32912C85.9463 9.32912 86.3468 9.97616 86.3468 11.2703C86.3468 11.8865 86.2236 12.3692 85.9771 12.7184C85.7511 13.0676 85.4225 13.2422 84.9911 13.2422C84.3749 13.2422 83.8511 13.2319 83.4197 13.2114L79.4142 13.1806H78.7363C78.6953 15.0293 78.572 16.6931 78.3666 18.1721C79.1472 18.2542 80.1229 18.2953 81.2937 18.2953C82.9986 18.2953 84.6008 18.2029 86.1003 18.018Z" fill="#E2E7E9"/>
<path d="M116.692 22.5165C115.172 22.5165 113.806 22.1981 112.594 21.5613C111.403 20.9246 110.468 20.031 109.79 18.8807C109.133 17.7304 108.804 16.4055 108.804 14.906C108.804 13.3654 109.154 11.9686 109.852 10.7156C110.55 9.44209 111.516 8.44585 112.748 7.72691C114.001 6.98743 115.408 6.61769 116.97 6.61769C118.633 6.61769 120.112 7.01824 121.406 7.81934C122.721 8.62045 123.625 9.65777 124.118 10.9313C124.282 11.3216 124.364 11.6605 124.364 11.9481C124.364 12.626 123.892 13.0779 122.947 13.3038C122.68 13.3654 122.433 13.3963 122.208 13.3963C121.797 13.3963 121.458 13.2935 121.191 13.0881C120.944 12.8622 120.667 12.5027 120.359 12.0097C119.969 11.414 119.527 10.9416 119.034 10.5924C118.541 10.2227 117.935 10.0378 117.216 10.0378C116.066 10.0378 115.121 10.5102 114.381 11.4551C113.642 12.3795 113.272 13.5503 113.272 14.9676C113.272 16.2617 113.601 17.2785 114.258 18.018C114.936 18.7369 115.912 19.0964 117.185 19.0964C118.397 19.0964 119.291 18.7883 119.866 18.1721C120.462 17.5353 120.759 16.7958 120.759 15.9536C120.759 15.625 120.924 15.3271 121.252 15.0601C121.602 14.7725 122.064 14.6287 122.639 14.6287C123.337 14.6287 123.861 14.7622 124.21 15.0293C124.58 15.2963 124.765 15.7688 124.765 16.4466C124.765 17.4737 124.498 18.4494 123.964 19.3737C123.43 20.2981 122.557 21.0581 121.345 21.6538C120.153 22.2289 118.603 22.5165 116.692 22.5165Z" fill="#E2E7E9"/>
<path d="M142.44 19.0656C142.83 19.1272 143.128 19.271 143.334 19.497C143.56 19.7229 143.673 20.1235 143.673 20.6986C143.673 21.1916 143.539 21.6127 143.272 21.9619C143.026 22.3111 142.687 22.4857 142.255 22.4857C141.372 22.4857 140.694 22.383 140.222 22.1776C139.749 21.9516 139.318 21.5511 138.928 20.9759C138.476 21.6538 137.86 22.1365 137.079 22.4241C136.298 22.6911 135.384 22.8246 134.337 22.8246C132.016 22.8246 130.249 22.157 129.037 20.8219C127.825 19.4867 127.219 17.6277 127.219 15.245C127.219 13.6838 127.538 12.2973 128.174 11.0854C128.811 9.87345 129.694 8.92856 130.824 8.25071C131.974 7.57285 133.289 7.23392 134.768 7.23392C135.508 7.23392 136.196 7.37771 136.832 7.66528C137.469 7.95286 137.952 8.33287 138.281 8.80532L138.342 8.40477C138.383 8.11719 138.548 7.88097 138.835 7.6961C139.123 7.49069 139.575 7.38798 140.191 7.38798C140.848 7.38798 141.331 7.5215 141.639 7.78853C141.947 8.05557 142.101 8.3945 142.101 8.80532C142.101 8.94911 142.091 9.06208 142.07 9.14424C141.947 9.84264 141.824 11.0135 141.701 12.6568C141.639 13.4168 141.608 14.3925 141.608 15.5839V17.1245C141.608 17.7202 141.66 18.1823 141.762 18.511C141.865 18.8191 142.091 19.004 142.44 19.0656ZM137.295 16.9396C137.315 16.0974 137.325 14.7931 137.325 13.0265C137.325 12.3281 137.089 11.7632 136.617 11.3319C136.165 10.88 135.579 10.654 134.861 10.654C133.936 10.654 133.176 11.0854 132.58 11.9481C131.985 12.7903 131.687 13.879 131.687 15.2141C131.687 16.4877 131.954 17.5045 132.488 18.2645C133.022 19.0245 133.741 19.4045 134.645 19.4045C135.487 19.4045 136.134 19.1991 136.586 18.7883C137.038 18.3569 137.274 17.7407 137.295 16.9396Z" fill="#E2E7E9"/>
<path d="M155.358 6.74093C157.166 6.74093 158.563 7.37771 159.549 8.65126C160.555 9.90427 161.058 11.7632 161.058 14.2282L161.028 21.1916C161.028 21.623 160.812 21.9516 160.381 22.1776C159.97 22.4035 159.456 22.5165 158.84 22.5165C158.244 22.5165 157.71 22.4138 157.238 22.2084C156.786 22.003 156.56 21.7154 156.56 21.3457L156.591 14.1974C156.591 12.6979 156.426 11.6503 156.098 11.0546C155.769 10.4589 155.256 10.161 154.557 10.161C153.961 10.161 153.489 10.4281 153.14 10.9621C152.791 11.4962 152.493 12.5335 152.246 14.0741C152.102 14.9368 152.031 15.892 152.031 16.9396L152.061 20.9143C152.061 21.4484 151.856 21.8592 151.445 22.1468C151.055 22.4138 150.521 22.5473 149.843 22.5473C149.145 22.5473 148.59 22.4035 148.179 22.116C147.789 21.8284 147.594 21.4278 147.594 20.9143C147.594 16.6418 147.532 13.3141 147.409 10.9313C147.388 10.6848 147.327 10.4589 147.224 10.2535C147.142 10.0275 147.039 9.8221 146.916 9.63723C146.793 9.45236 146.7 9.30857 146.639 9.20587C146.515 8.97992 146.454 8.75396 146.454 8.52801C146.454 8.09665 146.7 7.6961 147.193 7.32636C147.707 6.93608 148.2 6.74093 148.672 6.74093C148.898 6.74093 149.114 6.81283 149.319 6.95662C149.545 7.10041 149.792 7.33663 150.059 7.66528C150.285 7.95286 150.449 8.20963 150.552 8.43558C150.654 8.66153 150.706 8.91829 150.706 9.20587V9.48317C151.075 8.70261 151.63 8.05557 152.369 7.54204C153.13 7.00797 154.126 6.74093 155.358 6.74093Z" fill="#E2E7E9"/>
<path d="M173.421 16.3542C174.098 16.3542 174.591 16.4877 174.9 16.7547C175.208 17.0218 175.362 17.4531 175.362 18.0488C175.362 19.4045 174.93 20.4932 174.068 21.3149C173.205 22.1365 172.116 22.5473 170.802 22.5473C169.015 22.5473 167.71 21.8284 166.889 20.3905C166.067 18.9321 165.656 16.6315 165.656 13.4887C165.656 12.5438 165.666 11.8557 165.687 11.4243C165.543 11.4038 165.307 11.3935 164.978 11.3935C163.807 11.373 163.222 10.8081 163.222 9.69886C163.222 9.1237 163.366 8.69234 163.653 8.40477C163.961 8.11719 164.495 7.98367 165.256 8.00421L165.933 8.03503C166.077 6.76148 166.313 5.20035 166.642 3.35165C166.724 2.85867 166.95 2.48893 167.32 2.24243C167.71 1.9754 168.203 1.84188 168.799 1.84188C169.497 1.84188 170.042 2.00621 170.432 2.33487C170.822 2.66353 171.017 3.06408 171.017 3.53652L170.986 3.78301L170.832 4.76899C170.586 6.45336 170.422 7.60366 170.339 8.21989C171.038 8.26098 171.572 8.28152 171.942 8.28152C172.989 8.30206 173.513 8.8464 173.513 9.91454C173.513 10.4486 173.369 10.8492 173.082 11.1162C172.794 11.3832 172.311 11.5167 171.634 11.5167H170.093C170.072 11.9276 170.062 12.5849 170.062 13.4887C170.062 15.0087 170.093 16.1796 170.155 17.0012C170.237 17.8023 170.35 18.3467 170.493 18.6342C170.637 18.9218 170.822 19.0656 171.048 19.0656C171.336 19.0656 171.521 18.9732 171.603 18.7883C171.685 18.6034 171.726 18.2748 171.726 17.8023C171.726 16.8369 172.291 16.3542 173.421 16.3542Z" fill="#E2E7E9"/>
<path d="M185.725 22.5781C183.116 22.5781 181.041 21.9003 179.501 20.5446C177.981 19.1683 177.221 17.2477 177.221 14.7828C177.221 13.1806 177.56 11.753 178.238 10.5C178.915 9.24695 179.871 8.27125 181.103 7.57285C182.356 6.87445 183.825 6.52525 185.509 6.52525C187.214 6.52525 188.714 6.88472 190.008 7.60366C191.302 8.3226 192.298 9.32912 192.996 10.6232C193.715 11.8968 194.075 13.3552 194.075 14.9985C194.075 17.4018 193.325 19.271 191.826 20.6062C190.326 21.9208 188.292 22.5781 185.725 22.5781ZM185.663 19.158C186.916 19.158 187.882 18.8088 188.559 18.1104C189.258 17.3915 189.607 16.3336 189.607 14.9368C189.607 13.5606 189.268 12.3897 188.59 11.4243C187.933 10.4383 186.957 9.94535 185.663 9.94535C184.451 9.94535 183.486 10.387 182.767 11.2703C182.048 12.1535 181.688 13.3346 181.688 14.8136C181.688 16.2515 182.038 17.3401 182.736 18.0796C183.434 18.7986 184.41 19.158 185.663 19.158Z" fill="#E2E7E9"/>
<path d="M202.746 22.763C201.329 22.763 200.065 22.4343 198.956 21.777C197.847 21.0992 197.056 20.2056 196.584 19.0964C196.46 18.7883 196.399 18.5315 196.399 18.3261C196.399 17.8948 196.625 17.4839 197.077 17.0937C197.528 16.7034 198.021 16.5082 198.555 16.5082C198.864 16.5082 199.11 16.5801 199.295 16.7239C199.48 16.8472 199.624 16.9704 199.726 17.0937C199.829 17.1964 199.891 17.2683 199.911 17.3093C200.507 18.0077 201 18.5007 201.39 18.7883C201.78 19.0759 202.253 19.2197 202.807 19.2197C203.321 19.2197 203.763 19.117 204.132 18.9115C204.502 18.6856 204.687 18.3775 204.687 17.9872C204.687 17.5558 204.471 17.2169 204.04 16.9704C203.609 16.7239 202.91 16.4466 201.945 16.1385C200.877 15.7688 200.004 15.4196 199.326 15.0909C198.668 14.7622 198.083 14.2795 197.569 13.6427C197.076 12.9854 196.83 12.1535 196.83 11.147C196.83 10.1405 197.118 9.27776 197.693 8.55882C198.268 7.81934 199.028 7.25446 199.973 6.86418C200.938 6.4739 201.976 6.27876 203.085 6.27876C204.276 6.27876 205.303 6.50471 206.166 6.95662C207.049 7.38798 207.717 7.9734 208.169 8.71288C208.621 9.43182 208.847 10.2021 208.847 11.0238C208.847 11.5784 208.692 11.9995 208.384 12.287C208.076 12.5746 207.563 12.7184 206.844 12.7184C206.207 12.7184 205.765 12.6157 205.519 12.4103C205.293 12.2049 205.149 11.9173 205.088 11.5476C205.026 11.034 204.862 10.6232 204.595 10.3151C204.348 10.007 203.845 9.85291 203.085 9.85291C202.51 9.85291 202.058 9.95562 201.729 10.161C201.421 10.3664 201.267 10.654 201.267 11.0238C201.267 11.4757 201.483 11.8249 201.914 12.0714C202.366 12.3178 203.085 12.5849 204.071 12.8725C205.118 13.2011 205.981 13.5298 206.659 13.8584C207.337 14.1665 207.922 14.639 208.415 15.2758C208.908 15.892 209.155 16.7136 209.155 17.7407C209.155 18.9115 208.826 19.877 208.169 20.637C207.511 21.397 206.69 21.9414 205.704 22.27C204.718 22.5987 203.732 22.763 202.746 22.763Z" fill="#E2E7E9"/>
<path d="M121.249 47.9772C120.592 47.9772 120.048 47.8129 119.616 47.4842C119.185 47.1556 118.979 46.7139 119 46.1593L119.247 34.7898C119.267 34.2352 119.483 33.8038 119.894 33.4957C120.304 33.1671 120.838 33.0027 121.496 33.0027C122.174 33.0027 122.728 33.1671 123.16 33.4957C123.591 33.8244 123.796 34.2763 123.776 34.8514L123.529 46.1901C123.509 46.7448 123.283 47.1864 122.851 47.515C122.441 47.8232 121.907 47.9772 121.249 47.9772Z" fill="#E2E7E9"/>
<path d="M137.699 42.0306C138.377 42.0306 138.87 42.1641 139.178 42.4311C139.486 42.6981 139.64 43.1295 139.64 43.7252C139.64 45.0809 139.209 46.1696 138.346 46.9912C137.484 47.8129 136.395 48.2237 135.08 48.2237C133.293 48.2237 131.989 47.5048 131.167 46.0669C130.346 44.6085 129.935 42.3079 129.935 39.1651C129.935 38.2202 129.945 37.5321 129.966 37.1007C129.822 37.0802 129.586 37.0699 129.257 37.0699C128.086 37.0493 127.501 36.4845 127.501 35.3752C127.501 34.8001 127.644 34.3687 127.932 34.0812C128.24 33.7936 128.774 33.6601 129.534 33.6806L130.212 33.7114C130.356 32.4379 130.592 30.8767 130.921 29.028C131.003 28.5351 131.229 28.1653 131.599 27.9188C131.989 27.6518 132.482 27.5183 133.078 27.5183C133.776 27.5183 134.32 27.6826 134.711 28.0113C135.101 28.3399 135.296 28.7405 135.296 29.2129L135.265 29.4594L135.111 30.4454C134.865 32.1297 134.7 33.2801 134.618 33.8963C135.317 33.9374 135.851 33.9579 136.22 33.9579C137.268 33.9784 137.792 34.5228 137.792 35.5909C137.792 36.125 137.648 36.5255 137.36 36.7926C137.073 37.0596 136.59 37.1931 135.912 37.1931H134.372C134.351 37.604 134.341 38.2613 134.341 39.1651C134.341 40.6851 134.372 41.856 134.433 42.6776C134.515 43.4787 134.628 44.0231 134.772 44.3106C134.916 44.5982 135.101 44.742 135.327 44.742C135.614 44.742 135.799 44.6496 135.881 44.4647C135.964 44.2798 136.005 43.9512 136.005 43.4787C136.005 42.5133 136.57 42.0306 137.699 42.0306Z" fill="#E2E7E9"/>
<path d="M150.373 48.4702C148.504 48.4702 146.922 48.121 145.628 47.4226C144.355 46.7242 143.4 45.7588 142.763 44.5263C142.126 43.2938 141.808 41.897 141.808 40.3359C141.808 38.7748 142.167 37.3883 142.886 36.1763C143.626 34.9439 144.622 33.9887 145.875 33.3109C147.148 32.633 148.566 32.2941 150.127 32.2941C151.524 32.2941 152.797 32.5714 153.947 33.126C155.118 33.6806 156.032 34.4817 156.69 35.5293C157.368 36.5564 157.706 37.7683 157.706 39.1651C157.706 40.0483 157.542 40.6851 157.213 41.0754C156.905 41.4451 156.371 41.63 155.611 41.63H145.659C145.659 42.123 145.834 42.6263 146.183 43.1398C146.532 43.6328 147.056 44.0539 147.754 44.4031C148.453 44.7523 149.285 44.9269 150.25 44.9269C151.113 44.9269 151.791 44.8036 152.284 44.5571C152.777 44.2901 153.29 43.8998 153.824 43.3863C154.214 43.0371 154.615 42.8625 155.026 42.8625C155.498 42.8625 155.94 43.0473 156.351 43.4171C156.762 43.7663 156.967 44.1668 156.967 44.6187C156.967 44.9885 156.844 45.348 156.597 45.6971C156.166 46.375 155.437 47.0118 154.41 47.6075C153.383 48.1826 152.037 48.4702 150.373 48.4702ZM153.639 38.857C153.824 38.857 153.937 38.8262 153.978 38.7645C154.04 38.7029 154.071 38.5899 154.071 38.4256C154.071 37.6245 153.68 36.9569 152.9 36.4228C152.14 35.8888 151.195 35.6217 150.065 35.6217C149.161 35.6217 148.371 35.7963 147.693 36.1455C147.035 36.4947 146.532 36.9261 146.183 37.4396C145.834 37.9326 145.659 38.4051 145.659 38.857H153.639Z" fill="#E2E7E9"/>
<path d="M169.313 32.1708C170.135 32.1708 170.895 32.366 171.593 32.7563C172.292 33.126 172.846 33.6601 173.257 34.3585C173.668 35.0569 173.873 35.8682 173.873 36.7926C173.873 38.1278 173.432 39.1651 172.549 39.9046C171.686 40.6235 170.566 40.983 169.19 40.983C168.471 40.983 167.968 40.8803 167.68 40.6748C167.393 40.4489 167.249 40.0792 167.249 39.5656C167.249 39.0726 167.352 38.7337 167.557 38.5488C167.762 38.3434 168.05 38.2202 168.42 38.1791C169.632 38.0559 170.238 37.5526 170.238 36.6693C170.238 36.2996 170.145 36.0223 169.96 35.8374C169.796 35.632 169.56 35.5293 169.252 35.5293C168.697 35.5293 168.184 35.8477 167.711 36.4845C167.239 37.1007 166.848 37.8299 166.54 38.6721C166.232 39.4937 166.037 40.1921 165.955 40.7673C165.811 41.6711 165.739 43.2733 165.739 45.5739C165.739 46.6831 165.575 47.4431 165.246 47.854C164.938 48.2442 164.383 48.4394 163.582 48.4394C162.843 48.4394 162.278 48.2956 161.888 48.008C161.518 47.7205 161.323 47.2788 161.302 46.6831V41.6916C161.302 40.377 161.271 39.2678 161.21 38.364C161.148 37.4396 161.046 36.2585 160.902 34.8206L160.778 33.5574C160.737 33.0438 160.902 32.6227 161.271 32.2941C161.662 31.9654 162.196 31.8011 162.874 31.8011C164.024 31.8011 164.64 32.3146 164.722 33.3417C164.763 33.8347 164.805 34.5331 164.846 35.4369C165.256 34.4714 165.832 33.6909 166.571 33.0952C167.331 32.4789 168.245 32.1708 169.313 32.1708Z" fill="#E2E7E9"/>
<path d="M191.451 44.742C191.841 44.8036 192.139 44.9474 192.345 45.1734C192.57 45.3993 192.683 45.7999 192.683 46.375C192.683 46.868 192.55 47.2891 192.283 47.6383C192.036 47.9875 191.697 48.1621 191.266 48.1621C190.383 48.1621 189.705 48.0594 189.233 47.854C188.76 47.628 188.329 47.2275 187.938 46.6523C187.487 47.3302 186.87 47.8129 186.09 48.1005C185.309 48.3675 184.395 48.501 183.348 48.501C181.026 48.501 179.26 47.8334 178.048 46.4983C176.836 45.1631 176.23 43.3041 176.23 40.9213C176.23 39.3602 176.548 37.9737 177.185 36.7618C177.822 35.5498 178.705 34.605 179.835 33.9271C180.985 33.2492 182.3 32.9103 183.779 32.9103C184.518 32.9103 185.207 33.0541 185.843 33.3417C186.48 33.6292 186.963 34.0093 187.291 34.4817L187.353 34.0812C187.394 33.7936 187.558 33.5574 187.846 33.3725C188.134 33.1671 188.586 33.0644 189.202 33.0644C189.859 33.0644 190.342 33.1979 190.65 33.4649C190.958 33.732 191.112 34.0709 191.112 34.4817C191.112 34.6255 191.102 34.7385 191.081 34.8206C190.958 35.519 190.835 36.6899 190.712 38.3332C190.65 39.0932 190.619 40.0689 190.619 41.2603V42.8009C190.619 43.3965 190.67 43.8587 190.773 44.1874C190.876 44.4955 191.102 44.6804 191.451 44.742ZM186.305 42.616C186.326 41.7738 186.336 40.4694 186.336 38.7029C186.336 38.0045 186.1 37.4396 185.628 37.0083C185.176 36.5564 184.59 36.3304 183.871 36.3304C182.947 36.3304 182.187 36.7618 181.591 37.6245C180.996 38.4667 180.698 39.5554 180.698 40.8905C180.698 42.1641 180.965 43.1809 181.499 43.9409C182.033 44.7009 182.752 45.0809 183.656 45.0809C184.498 45.0809 185.145 44.8755 185.597 44.4647C186.049 44.0333 186.285 43.4171 186.305 42.616ZM182.516 31.2157C182.084 31.2157 181.725 31.0719 181.437 30.7843C181.15 30.4762 181.006 30.1064 181.006 29.6751C181.006 29.4286 181.057 29.1718 181.16 28.9048C181.263 28.6378 181.406 28.4221 181.591 28.2577L184.457 25.6388C184.847 25.269 185.155 25.0123 185.381 24.8685C185.628 24.7247 185.895 24.6528 186.182 24.6528C186.634 24.6528 187.014 24.8068 187.322 25.115C187.63 25.4231 187.784 25.8134 187.784 26.2858C187.784 26.5939 187.713 26.8815 187.569 27.1485C187.445 27.4156 187.281 27.6415 187.076 27.8264L183.995 30.4762C183.707 30.7432 183.45 30.9384 183.224 31.0616C182.998 31.1643 182.762 31.2157 182.516 31.2157Z" fill="#E2E7E9"/>
<path d="M204.307 32.1708C205.129 32.1708 205.889 32.366 206.587 32.7563C207.286 33.126 207.84 33.6601 208.251 34.3585C208.662 35.0569 208.868 35.8682 208.868 36.7926C208.868 38.1278 208.426 39.1651 207.543 39.9046C206.68 40.6235 205.56 40.983 204.184 40.983C203.465 40.983 202.962 40.8803 202.674 40.6748C202.387 40.4489 202.243 40.0792 202.243 39.5656C202.243 39.0726 202.346 38.7337 202.551 38.5488C202.757 38.3434 203.044 38.2202 203.414 38.1791C204.626 38.0559 205.232 37.5526 205.232 36.6693C205.232 36.2996 205.139 36.0223 204.954 35.8374C204.79 35.632 204.554 35.5293 204.246 35.5293C203.691 35.5293 203.178 35.8477 202.705 36.4845C202.233 37.1007 201.842 37.8299 201.534 38.6721C201.226 39.4937 201.031 40.1921 200.949 40.7673C200.805 41.6711 200.733 43.2733 200.733 45.5739C200.733 46.6831 200.569 47.4431 200.24 47.854C199.932 48.2442 199.378 48.4394 198.576 48.4394C197.837 48.4394 197.272 48.2956 196.882 48.008C196.512 47.7205 196.317 47.2788 196.296 46.6831V41.6916C196.296 40.377 196.266 39.2678 196.204 38.364C196.142 37.4396 196.04 36.2585 195.896 34.8206L195.773 33.5574C195.731 33.0438 195.896 32.6227 196.266 32.2941C196.656 31.9654 197.19 31.8011 197.868 31.8011C199.018 31.8011 199.634 32.3146 199.716 33.3417C199.758 33.8347 199.799 34.5331 199.84 35.4369C200.251 34.4714 200.826 33.6909 201.565 33.0952C202.325 32.4789 203.239 32.1708 204.307 32.1708Z" fill="#E2E7E9"/>
<path d="M214.767 47.9772C214.11 47.9772 213.566 47.8129 213.134 47.4842C212.703 47.1556 212.498 46.7139 212.518 46.1593L212.765 34.7898C212.785 34.2352 213.001 33.8038 213.412 33.4957C213.823 33.1671 214.357 33.0027 215.014 33.0027C215.692 33.0027 216.246 33.1671 216.678 33.4957C217.109 33.8244 217.315 34.2763 217.294 34.8514L217.048 46.1901C217.027 46.7448 216.801 47.1864 216.37 47.515C215.959 47.8232 215.425 47.9772 214.767 47.9772Z" fill="#E2E7E9"/>
<path d="M229.831 48.2545C227.222 48.2545 225.148 47.5767 223.607 46.2209C222.087 44.8447 221.327 42.9241 221.327 40.4592C221.327 38.857 221.666 37.4294 222.344 36.1763C223.022 34.9233 223.977 33.9476 225.209 33.2492C226.462 32.5508 227.931 32.2016 229.615 32.2016C231.32 32.2016 232.82 32.5611 234.114 33.28C235.408 33.999 236.404 35.0055 237.103 36.2996C237.822 37.5731 238.181 39.0316 238.181 40.6748C238.181 43.0782 237.431 44.9474 235.932 46.2826C234.432 47.5972 232.399 48.2545 229.831 48.2545ZM229.769 44.8344C231.022 44.8344 231.988 44.4852 232.666 43.7868C233.364 43.0679 233.713 42.01 233.713 40.6132C233.713 39.237 233.374 38.0661 232.697 37.1007C232.039 36.1147 231.063 35.6217 229.769 35.6217C228.557 35.6217 227.592 36.0634 226.873 36.9466C226.154 37.8299 225.795 39.011 225.795 40.49C225.795 41.9279 226.144 43.0165 226.842 43.756C227.541 44.475 228.516 44.8344 229.769 44.8344Z" fill="#E2E7E9"/>
<path d="M246.852 48.4394C245.435 48.4394 244.171 48.1107 243.062 47.4534C241.953 46.7756 241.162 45.882 240.69 44.7728C240.566 44.4647 240.505 44.2079 240.505 44.0025C240.505 43.5711 240.731 43.1603 241.183 42.77C241.635 42.3798 242.128 42.1846 242.662 42.1846C242.97 42.1846 243.216 42.2565 243.401 42.4003C243.586 42.5236 243.73 42.6468 243.833 42.77C243.935 42.8728 243.997 42.9446 244.017 42.9857C244.613 43.6841 245.106 44.1771 245.496 44.4647C245.887 44.7523 246.359 44.896 246.914 44.896C247.427 44.896 247.869 44.7933 248.239 44.5879C248.608 44.362 248.793 44.0539 248.793 43.6636C248.793 43.2322 248.578 42.8933 248.146 42.6468C247.715 42.4003 247.016 42.123 246.051 41.8149C244.983 41.4451 244.11 41.0959 243.432 40.7673C242.775 40.4386 242.189 39.9559 241.676 39.3191C241.183 38.6618 240.936 37.8299 240.936 36.8234C240.936 35.8169 241.224 34.9541 241.799 34.2352C242.374 33.4957 243.134 32.9309 244.079 32.5406C245.044 32.1503 246.082 31.9551 247.191 31.9551C248.382 31.9551 249.409 32.1811 250.272 32.633C251.155 33.0644 251.823 33.6498 252.275 34.3893C252.727 35.1082 252.953 35.8785 252.953 36.7001C252.953 37.2548 252.799 37.6758 252.491 37.9634C252.183 38.251 251.669 38.3948 250.95 38.3948C250.313 38.3948 249.872 38.2921 249.625 38.0867C249.399 37.8813 249.255 37.5937 249.194 37.2239C249.132 36.7104 248.968 36.2996 248.701 35.9915C248.454 35.6834 247.951 35.5293 247.191 35.5293C246.616 35.5293 246.164 35.632 245.835 35.8374C245.527 36.0428 245.373 36.3304 245.373 36.7001C245.373 37.152 245.589 37.5012 246.02 37.7477C246.472 37.9942 247.191 38.2613 248.177 38.5488C249.225 38.8775 250.087 39.2062 250.765 39.5348C251.443 39.8429 252.028 40.3154 252.521 40.9522C253.014 41.5684 253.261 42.39 253.261 43.4171C253.261 44.5879 252.932 45.5534 252.275 46.3134C251.618 47.0734 250.796 47.6177 249.81 47.9464C248.824 48.2751 247.838 48.4394 246.852 48.4394Z" fill="#E2E7E9"/>
<path d="M100.324 6.74093C102.132 6.74093 103.529 7.37771 104.515 8.65126C105.521 9.90427 106.025 11.7632 106.025 14.2282C106.025 14.2282 105.762 21.2175 105.691 22.4857C105.621 23.7538 104.886 35.3239 104.886 35.3239C104.763 37.5705 104.763 38.9699 104.763 40.9213C104.763 41.9279 104.804 42.6673 104.886 43.1398C104.989 43.6122 105.173 43.9409 105.44 44.1258C105.728 44.3106 106.17 44.4031 106.765 44.4031C108.039 44.4031 110.237 44.1155 113.359 43.5403C113.462 43.5198 113.606 43.5095 113.79 43.5095C114.325 43.5095 114.746 43.7149 115.054 44.1258C115.382 44.516 115.547 44.9782 115.547 45.5123C115.547 46.601 114.756 47.2891 113.174 47.5767C111.757 47.8437 110.678 48.0286 109.939 48.1313C109.22 48.2134 108.306 48.2545 107.197 48.2545C105.184 48.2545 103.705 48.0388 102.76 47.6075C101.836 47.1761 101.219 46.4572 100.911 45.4507C100.603 44.4441 100.449 42.8933 100.449 40.7981C100.449 38.4359 100.552 36.2688 100.757 34.2968C100.983 32.3249 101.254 25.9546 101.547 21.813C101.84 17.6713 101.557 14.1974 101.557 14.1974C101.557 12.6979 101.393 11.6503 101.064 11.0546C100.735 10.4589 100.222 10.161 99.5234 10.161C98.9277 10.161 98.4552 10.4281 98.106 10.9621C97.7569 11.4962 97.459 12.5335 97.2125 14.0741C97.0687 14.9368 96.9968 15.892 96.9968 16.9396L97.0276 20.9143C97.0276 21.4484 96.8222 21.8592 96.4114 22.1468C96.0211 22.4138 95.4871 22.5473 94.8092 22.5473C94.1108 22.5473 93.5562 22.4035 93.1454 22.116C92.7551 21.8284 92.5599 21.4278 92.5599 20.9143C92.5599 16.6418 92.4983 13.3141 92.3751 10.9313C92.3545 10.6848 92.2929 10.4589 92.1902 10.2535C92.108 10.0275 92.0053 9.8221 91.8821 9.63723C91.7588 9.45236 91.6664 9.30857 91.6048 9.20587C91.4815 8.97992 91.4199 8.75396 91.4199 8.52801C91.4199 8.09665 91.6664 7.6961 92.1594 7.32636C92.6729 6.93608 93.1659 6.74093 93.6384 6.74093C93.8643 6.74093 94.08 6.81283 94.2854 6.95662C94.5114 7.10041 94.7578 7.33663 95.0249 7.66528C95.2508 7.95286 95.4152 8.20963 95.5179 8.43558C95.6206 8.66153 95.6719 8.91829 95.6719 9.20587V9.48317C96.0417 8.70261 96.5963 8.05557 97.3358 7.54204C98.0958 7.00797 99.092 6.74093 100.324 6.74093Z" fill="#E2E7E9"/>
<path d="M118.391 28.5714C118.413 28.7133 118.467 28.8482 118.549 28.9655C118.659 29.1206 118.815 29.2376 118.994 29.3004L119.883 29.5906C120.065 29.6491 120.23 29.7501 120.367 29.8866C120.502 30.0219 120.604 30.1871 120.666 30.3706L120.95 31.2458C121.01 31.4289 121.126 31.5884 121.281 31.7019C121.437 31.8154 121.625 31.877 121.817 31.878C122.01 31.879 122.198 31.8194 122.355 31.7076C122.512 31.5958 122.63 31.4374 122.692 31.255L122.981 30.3683C123.043 30.1898 123.146 30.028 123.281 29.8957C123.416 29.7634 123.58 29.6641 123.76 29.6055L124.634 29.3222C124.818 29.2626 124.977 29.1468 125.091 28.9913C125.205 28.8358 125.267 28.6484 125.268 28.4558C125.269 28.2631 125.21 28.075 125.098 27.918C124.986 27.761 124.828 27.6431 124.646 27.581L123.759 27.292C123.578 27.2308 123.413 27.1285 123.278 26.9932C123.143 26.8579 123.042 26.6932 122.981 26.512L122.694 25.6357C122.636 25.4512 122.522 25.2895 122.367 25.1737C122.212 25.058 122.025 24.9941 121.831 24.9912C121.638 24.9883 121.449 25.0464 121.29 25.1574C121.132 25.2684 121.013 25.4266 120.95 25.6093L120.661 26.4948C120.601 26.676 120.5 26.8412 120.362 26.9766C120.226 27.1112 120.062 27.2132 119.88 27.2748L119.006 27.5593C118.87 27.6058 118.747 27.6832 118.647 27.7854C118.546 27.8877 118.471 28.0119 118.426 28.1483C118.382 28.2848 118.37 28.4296 118.391 28.5714Z" fill="#E2E7E9"/>
<path d="M211.949 28.5714C211.971 28.7132 212.025 28.8482 212.107 28.9655C212.218 29.1205 212.373 29.2376 212.553 29.3004L213.441 29.5906C213.623 29.6491 213.788 29.7501 213.925 29.8865C214.06 30.0219 214.163 30.1871 214.224 30.3706L214.508 31.2458C214.568 31.4288 214.684 31.5884 214.84 31.7019C214.995 31.8154 215.183 31.877 215.376 31.878C215.568 31.879 215.756 31.8194 215.913 31.7076C216.07 31.5957 216.188 31.4374 216.25 31.2549L216.539 30.3683C216.601 30.1898 216.704 30.028 216.839 29.8957C216.974 29.7634 217.138 29.6641 217.318 29.6055L218.192 29.3222C218.376 29.2626 218.535 29.1468 218.649 28.9912C218.763 28.8357 218.825 28.6484 218.826 28.4558C218.827 28.2631 218.768 28.075 218.656 27.918C218.545 27.761 218.386 27.6431 218.204 27.581L217.317 27.292C217.136 27.2308 216.971 27.1285 216.836 26.9932C216.701 26.8579 216.6 26.6932 216.539 26.512L216.252 25.6357C216.195 25.4511 216.08 25.2895 215.925 25.1737C215.77 25.058 215.583 24.9941 215.39 24.9912C215.196 24.9882 215.007 25.0464 214.849 25.1574C214.69 25.2684 214.571 25.4266 214.508 25.6093L214.219 26.4948C214.159 26.676 214.058 26.8412 213.92 26.9766C213.784 27.1112 213.62 27.2132 213.438 27.2748L212.564 27.5592C212.428 27.6057 212.305 27.6832 212.205 27.7854C212.104 27.8877 212.029 28.0119 211.984 28.1483C211.94 28.2847 211.928 28.4296 211.949 28.5714Z" fill="#E2E7E9"/>
<path fill-rule="evenodd" clip-rule="evenodd" d="M28.2743 32.4747C22.659 33.9852 18.151 35.009 12.0668 36.1559C10.0124 36.5432 8.30883 36.8906 8.28113 36.9278C8.25327 36.965 8.05968 37.9017 7.85064 39.0089C7.64159 40.1162 7.23895 41.5908 6.95569 42.2853L6.44072 43.5484L4.36724 43.7798C2.01371 44.0425 1.48757 44.3199 1.01944 45.5456C0.512277 46.8732 0.694389 48.1083 1.5572 49.1916C1.86067 49.5727 2.16674 49.7118 2.83429 49.7712C3.31711 49.8144 9.70344 49.2385 17.0262 48.4917L30.3403 47.134L30.6464 47.6955C32.2268 50.5958 34.3171 52.3354 37.1468 53.1057C38.2235 53.3988 41.5892 53.3978 42.6684 53.1043C45.4922 52.3358 47.5843 50.5937 49.1637 47.6955L49.4697 47.134L62.7838 48.4917C70.1066 49.2385 76.4929 49.8144 76.9757 49.7712C77.6411 49.712 77.9515 49.5717 78.258 49.1916C79.3833 47.7969 79.3019 45.6212 78.0823 44.4982C77.6592 44.1085 77.2458 43.9894 75.7614 43.829C74.7682 43.7216 73.8829 43.6013 73.7941 43.5616C73.463 43.4135 72.6246 40.9116 72.2613 38.9873C72.0546 37.8918 71.8642 36.9671 71.8382 36.9321C71.8122 36.8972 69.8677 36.501 67.5169 36.0518C62.9199 35.1736 58.6915 34.2299 54.0608 33.0491C51.3288 32.3525 51.0145 32.3134 48.8576 32.4029C47.113 32.4755 46.2875 32.6059 45.4184 32.9463C43.825 33.5703 42.0965 34.8305 40.9932 36.1721L40.058 37.3098L39.1016 36.1431C38.0612 34.8741 36.0259 33.4241 34.4722 32.8449C33.5611 32.5053 29.142 32.2414 28.2743 32.4747ZM32.9407 35.9438C33.838 36.1541 34.7057 36.5269 35.4836 37.0134C36.6935 37.7701 38.113 39.1262 38.6099 40.6405C38.7941 41.2018 41.2744 41.3719 41.5947 40.6405C42.0574 39.2607 43.0739 38.0302 44.5493 37.0868C46.2932 35.9716 47.1598 35.7345 49.3932 35.7612C50.9554 35.7799 51.8955 35.9379 54.5199 36.6228C58.5858 37.6837 61.4443 38.3244 65.6915 39.1267C67.5432 39.4764 69.2225 39.8318 69.4233 39.9165C69.7079 40.0364 69.8796 40.4186 70.2044 41.6551C70.5632 43.0215 70.5865 43.2399 70.373 43.2399C70.237 43.2399 65.0725 42.7321 58.8966 42.1115C47.6778 40.9842 47.667 40.9836 47.0141 41.3719C46.4399 41.7131 46.2949 41.9464 45.8203 43.2905C44.764 46.2819 43.1794 47.3796 39.9093 47.3851C36.7529 47.3905 34.9894 46.2296 34.0869 43.5521C33.637 42.2175 33.1858 41.5404 32.5209 41.2018C32.2067 41.0418 29.26 41.273 20.8923 42.1138C14.7279 42.7331 9.63442 43.2399 9.57321 43.2399C9.51184 43.2399 9.58851 42.8429 9.74323 42.3575C9.89795 41.8723 10.0741 41.1726 10.1345 40.8026C10.2025 40.3871 10.3707 40.0667 10.5747 39.9645C10.7562 39.8733 12.0411 39.5926 13.4299 39.3406C16.7908 38.7306 21.7337 37.6397 25.2136 36.7396C29.8425 35.5424 30.8049 35.4432 32.9407 35.9438Z" fill="#E2E7E9"/>
<path fill-rule="evenodd" clip-rule="evenodd" d="M24.6251 33.4263C25.8058 33.1291 27.0122 32.8141 28.2743 32.4747C29.142 32.2414 33.5611 32.5053 34.4722 32.8449C36.0259 33.4241 38.0612 34.8741 39.1016 36.1431L40.058 37.3098L40.9932 36.1721C42.0965 34.8305 43.825 33.5703 45.4184 32.9463C46.2875 32.6059 47.113 32.4755 48.8576 32.4029C51.0145 32.3134 51.3288 32.3525 54.0608 33.0491C54.6471 33.1986 55.2267 33.3443 55.8017 33.4866C55.6708 32.7861 55.4578 32.1015 55.166 31.4471C54.6418 30.2718 53.8747 29.2208 52.9153 28.3631C52.7311 26.9777 52.3216 25.6317 51.703 24.3785C53.4374 20.9453 54.7036 17.295 55.4679 13.5253C56.0191 10.665 56.3816 6.76647 54.9753 4.43908C54.6529 3.86587 54.181 3.39092 53.6099 3.06489C53.0388 2.73885 52.3898 2.57395 51.7323 2.58778C47.1838 2.58778 44.3784 10.4471 42.7725 17.4989C41.0812 17.1505 39.3366 17.1505 37.6453 17.4989C36.0394 10.4471 33.234 2.58778 28.6855 2.58778C28.0285 2.57341 27.38 2.73748 26.8089 3.06252C26.2378 3.38756 25.7656 3.8614 25.4425 4.43359C24.0343 6.76098 24.4006 10.6595 24.9499 13.5198C25.7137 17.2914 26.9799 20.9435 28.7148 24.3785C28.0956 25.6334 27.6861 26.9813 27.5025 28.3686C26.5852 29.1898 25.843 30.1875 25.3202 31.3022C25.0018 31.9808 24.7689 32.6943 24.6251 33.4263ZM36.6042 31.8049C36.8054 31.5037 36.9128 31.1497 36.9128 30.7875C36.9128 30.3019 36.7199 29.8361 36.3765 29.4927C36.0331 29.1493 35.5673 28.9564 35.0817 28.9564C34.7195 28.9564 34.3655 29.0638 34.0643 29.265C33.7632 29.4662 33.5285 29.7522 33.3899 30.0868C33.2513 30.4214 33.2151 30.7896 33.2857 31.1448C33.3564 31.5 33.5308 31.8263 33.7869 32.0823C34.043 32.3384 34.3692 32.5128 34.7244 32.5835C35.0796 32.6541 35.4478 32.6179 35.7824 32.4793C36.117 32.3407 36.403 32.106 36.6042 31.8049ZM44.3188 29.265C44.6199 29.0638 44.974 28.9564 45.3361 28.9564C45.8218 28.9564 46.2875 29.1493 46.631 29.4927C46.9744 29.8361 47.1673 30.3019 47.1673 30.7875C47.1673 31.1497 47.0599 31.5037 46.8587 31.8049C46.6575 32.106 46.3715 32.3407 46.0369 32.4793C45.7023 32.6179 45.3341 32.6541 44.9789 32.5835C44.6237 32.5128 44.2974 32.3384 44.0413 32.0823C43.7852 31.8263 43.6108 31.5 43.5402 31.1448C43.4695 30.7896 43.5058 30.4214 43.6444 30.0868C43.783 29.7522 44.0177 29.4662 44.3188 29.265Z" fill="#E2E7E9"/>
<path d="M2.07436 17.87C1.95193 17.6966 1.88644 17.4895 1.88697 17.2772C1.8875 17.065 1.95402 16.8582 2.07731 16.6855C2.20522 16.5104 2.38234 16.3775 2.587 16.3047L3.93796 15.865C4.27658 15.7521 4.58432 15.5621 4.83688 15.3099C5.08944 15.0578 5.27991 14.7503 5.39323 14.4119L5.83601 13.0435C5.90927 12.8411 6.04418 12.6669 6.22173 12.5453C6.39927 12.4237 6.61051 12.3608 6.82566 12.3656C7.04082 12.3704 7.24906 12.4426 7.42102 12.5719C7.59299 12.7013 7.72003 12.8814 7.78423 13.0867L8.22504 14.4395C8.33778 14.7782 8.52776 15.0861 8.77999 15.3388C9.03222 15.5915 9.33977 15.7821 9.67834 15.8955L11.0441 16.3402C11.2453 16.4118 11.4191 16.5443 11.5415 16.7193C11.6639 16.8943 11.7287 17.1031 11.7268 17.3166C11.725 17.5302 11.6566 17.7378 11.5312 17.9107C11.4059 18.0835 11.2297 18.2131 11.0273 18.2812L9.6498 18.7308C9.32031 18.8436 9.02072 19.0298 8.77359 19.2752C8.52646 19.5205 8.33823 19.8188 8.22307 20.1474L7.78325 21.5149C7.71148 21.716 7.57887 21.8898 7.40384 22.0121C7.22881 22.1344 7.02003 22.1992 6.80649 22.1974C6.59295 22.1957 6.38525 22.1276 6.21222 22.0024C6.03919 21.8773 5.90942 21.7014 5.84093 21.4992L5.40307 20.1474C5.29007 19.807 5.09872 19.4978 4.84443 19.2447C4.59014 18.9917 4.28 18.8018 3.93895 18.6904L2.57027 18.2458C2.36954 18.1749 2.19637 18.0431 2.07436 17.87Z" fill="#E2E7E9"/>
<path d="M75.3564 32.5663C75.3742 32.6845 75.4193 32.7969 75.4881 32.8947C75.5798 33.0239 75.7094 33.1214 75.8591 33.1738L76.5992 33.4156C76.7512 33.4644 76.8889 33.5485 77.0027 33.6623C77.1155 33.775 77.2006 33.9127 77.2523 34.0656L77.4885 34.7949C77.5384 34.9475 77.6351 35.0805 77.7649 35.1751C77.8946 35.2696 78.0509 35.321 78.2115 35.3218C78.3721 35.3227 78.5288 35.273 78.6596 35.1798C78.7904 35.0866 78.8885 34.9546 78.94 34.8026L79.181 34.0637C79.2329 33.9149 79.3185 33.7801 79.4311 33.6699C79.5438 33.5596 79.6804 33.4769 79.8303 33.4281L80.5589 33.192C80.7116 33.1423 80.8448 33.0458 80.9395 32.9162C81.0343 32.7866 81.0859 32.6305 81.0869 32.4699C81.088 32.3094 81.0385 32.1526 80.9454 32.0218C80.8524 31.891 80.7205 31.7927 80.5685 31.741L79.8293 31.5001C79.6784 31.4491 79.5414 31.3639 79.4289 31.2511C79.3164 31.1384 79.2316 31.0011 79.181 30.8501L78.9419 30.1199C78.894 29.9661 78.7987 29.8313 78.6696 29.7349C78.5405 29.6385 78.3843 29.5852 78.2232 29.5828C78.062 29.5803 77.9043 29.6288 77.7723 29.7213C77.6404 29.8138 77.541 29.9456 77.4885 30.0979L77.2475 30.8358C77.1978 30.9868 77.1136 31.1245 76.9989 31.2373C76.8856 31.3495 76.7483 31.4344 76.5973 31.4858L75.8686 31.7228C75.7555 31.7616 75.653 31.8261 75.5691 31.9113C75.4853 31.9965 75.4224 32.1001 75.3855 32.2137C75.3486 32.3274 75.3386 32.4481 75.3564 32.5663Z" fill="#E2E7E9"/>
</svg>
